<svg xmlns="http://www.w3.org/2000/svg" xmlns:xlink="http://www.w3.org/1999/xlink" width="616" height="266"><defs><linearGradient id="b"><stop offset="0" stop-color="#7bb975"/><stop offset=".6883" stop-color="#56a4f2"/><stop offset="1" stop-color="#f99a35"/></linearGradient><linearGradient id="a"><stop offset="0" stop-color="#7bb975"/><stop offset="1" stop-color="#56a4f2"/></linearGradient><linearGradient id="f" x1="412.5" x2="480" y1="389.3622" y2="389.3622" gradientTransform="matrix(1.3307 0 0 1.33333 -40 -301.5072)" gradientUnits="userSpaceOnUse" xlink:href="#a"/><linearGradient id="g" x1="412.5" x2="585" y1="411.8622" y2="411.8622" gradientTransform="translate(-40 -301.5072) scale(1.33333)" gradientUnits="userSpaceOnUse" xlink:href="#b"/></defs><rect width="615" height="265" x="-49.5" y="-77.8594" fill="#fff" stroke="#000" color="#000" overflow="visible" rx="10" ry="10" style="marker:none" transform="translate(50 78.3594)"/><rect width="45.9999" height="35.9999" x="351.999" y="133.7813" fill="#ae56ee" color="#000" overflow="visible" rx="7" ry="7" style="marker:none" transform="translate(58 86.2187)"/><g transform="translate(73 -73.6435)"><rect id="c" width="35.9999" height="35.9999" x="-63" y="133.6439" fill="#a6d0a2" fill-opacity="1" stroke="none" stroke-width="1" color="#000" display="inline" overflow="visible" rx="7" ry="7" style="marker:none" visibility="visible"/><use width="744.0945" height="1052.3622" transform="translate(99.9998 39.9999)" xlink:href="#c"/><use width="744.0945" height="1052.3622" transform="translate(139.9997 39.9999)" xlink:href="#c"/><use width="744.0945" height="1052.3622" transform="translate(179.9995 39.9999)" xlink:href="#c"/><use width="744.0945" height="1052.3622" transform="translate(219.9994 39.9999)" xlink:href="#c"/><use width="744.0945" height="1052.3622" transform="translate(259.9993 39.9999)" xlink:href="#c"/><use width="744.0945" height="1052.3622" transform="translate(299.9993 39.9999)" xlink:href="#c"/><use width="744.0945" height="1052.3622" transform="translate(339.9991 39.9999)" xlink:href="#c"/><use width="744.0945" height="1052.3622" transform="translate(379.999 39.9999)" xlink:href="#c"/><use width="744.0945" height="1052.3622" transform="translate(419.999 39.9999)" xlink:href="#c"/><use width="744.0945" height="1052.3622" transform="translate(459.9989 39.9999)" xlink:href="#c"/><use width="744.0945" height="1052.3622" transform="translate(499.9987 39.9999)" xlink:href="#c"/><use width="744.0945" height="1052.3622" transform="translate(69.9998 79.9998)" xlink:href="#c"/><use width="744.0945" height="1052.3622" transform="translate(109.9997 79.9998)" xlink:href="#c"/><use width="744.0945" height="1052.3622" transform="translate(149.9996 79.9998)" xlink:href="#c"/><use width="744.0945" height="1052.3622" transform="translate(189.9995 79.9998)" xlink:href="#c"/><use width="744.0945" height="1052.3622" transform="translate(229.9994 79.9998)" xlink:href="#c"/><use width="744.0945" height="1052.3622" transform="translate(269.9993 79.9998)" xlink:href="#c"/><use width="744.0945" height="1052.3622" transform="translate(309.9992 79.9998)" xlink:href="#c"/><use width="744.0945" height="1052.3622" transform="translate(349.9991 79.9998)" xlink:href="#c"/><use width="744.0945" height="1052.3622" transform="translate(389.999 79.9998)" xlink:href="#c"/><use width="744.0945" height="1052.3622" transform="translate(429.999 79.9998)" xlink:href="#c"/><use width="744.0945" height="1052.3622" transform="translate(469.9988 79.9998)" xlink:href="#c"/><use width="744.0945" height="1052.3622" transform="translate(89.9998 119.9997)" xlink:href="#c"/><use width="744.0945" height="1052.3622" transform="translate(129.9997 119.9997)" xlink:href="#c"/><use width="744.0945" height="1052.3622" transform="translate(169.9996 119.9997)" xlink:href="#c"/><use width="744.0945" height="1052.3622" transform="translate(209.9995 119.9997)" xlink:href="#c"/><use width="744.0945" height="1052.3622" transform="translate(249.9994 119.9997)" xlink:href="#c"/><use width="744.0945" height="1052.3622" transform="translate(289.9993 119.9997)" xlink:href="#c"/><use width="744.0945" height="1052.3622" transform="translate(329.9992 119.9997)" xlink:href="#c"/><use width="744.0945" height="1052.3622" transform="translate(369.999 119.9997)" xlink:href="#c"/><use width="744.0945" height="1052.3622" transform="translate(409.999 119.9997)" xlink:href="#c"/><use width="744.0945" height="1052.3622" transform="translate(449.9989 119.9997)" xlink:href="#c"/><use width="744.0945" height="1052.3622" transform="translate(39.9999)" xlink:href="#c"/><use width="744.0945" height="1052.3622" transform="translate(79.9998)" xlink:href="#c"/><use width="744.0945" height="1052.3622" transform="translate(119.9997)" xlink:href="#c"/><use width="744.0945" height="1052.3622" transform="translate(159.9996)" xlink:href="#c"/><use width="744.0945" height="1052.3622" transform="translate(199.9995)" xlink:href="#c"/><use width="744.0945" height="1052.3622" transform="translate(239.9994)" xlink:href="#c"/><use width="744.0945" height="1052.3622" transform="translate(279.9993)" xlink:href="#c"/><use width="744.0945" height="1052.3622" transform="translate(319.9992)" xlink:href="#c"/><use width="744.0945" height="1052.3622" transform="translate(359.9991)" xlink:href="#c"/><use width="744.0945" height="1052.3622" transform="translate(399.999)" xlink:href="#c"/><use width="744.0945" height="1052.3622" transform="translate(79.9998 -50.0004)" xlink:href="#c"/><use width="744.0945" height="1052.3622" transform="translate(439.9989)" xlink:href="#c"/><use width="744.0945" height="1052.3622" transform="translate(479.9988)" xlink:href="#c"/><use width="744.0945" height="1052.3622" transform="translate(59.9999 39.9999)" xlink:href="#c"/><use width="744.0945" height="1052.3622" transform="translate(119.9997 -50.0004)" xlink:href="#c"/><use width="744.0945" height="1052.3622" transform="translate(159.9996 -50.0004)" xlink:href="#c"/><use width="744.0945" height="1052.3622" transform="translate(199.9995 -50.0004)" xlink:href="#c"/><rect id="e" width="35.9999" height="35.9999" x="196.9994" y="83.6435" fill="#7bb975" fill-opacity="1" stroke="none" stroke-width="1" color="#000" display="inline" overflow="visible" rx="7" ry="7" style="marker:none" visibility="visible"/><use width="744.0945" height="1052.3622" transform="translate(439.9989 -50.0004)" xlink:href="#c"/><use width="744.0945" height="1052.3622" transform="translate(479.9988 -50.0004)" xlink:href="#c"/><use width="744.0945" height="1052.3622" transform="translate(559.9986 -50.0004)" xlink:href="#c"/><rect width="35.9999" height="35.9999" x="-63" y="83.6435" fill="#ff0700" color="#000" overflow="visible" rx="7" ry="7" style="marker:none"/><rect id="d" width="45.9999" height="35.9999" x="-63" y="293.6435" fill="#7bb975" fill-opacity="1" stroke="none" stroke-width="1" color="#000" display="inline" overflow="visible" rx="7" ry="7" style="marker:none" visibility="visible"/><rect width="75.9998" height="35.9999" x="456.9987" y="133.6439" fill="#7bb975" color="#000" overflow="visible" rx="7" ry="7" style="marker:none"/><rect width="246" height="35.9999" x="86.9996" y="293.6435" fill="#a6d0a2" color="#000" overflow="visible" rx="7" ry="7" style="marker:none"/><rect width="105.9997" height="35.9999" x="426.9988" y="253.6437" fill="#7bb975" color="#000" overflow="visible" rx="7" ry="7" style="marker:none"/><path fill="none" stroke="#fff" stroke-width="2" d="M-49.338 94.1366h5.0053c1.8486 0 3.6706 1.5943 3.6706 3.5747v7.8643c0 1.9804-1.822 3.5747-3.6706 3.5747h-5.0053z" color="#000" overflow="visible" style="marker:none"/><rect width="65.9998" height="35.9999" x="-63" y="213.6437" fill="#7bb975" color="#000" overflow="visible" rx="7" ry="7" style="marker:none"/><use width="744.0945" height="1052.3622" transform="translate(519.9987 -50.0004)" xlink:href="#c"/><use width="477" height="214.5" transform="translate(49.9999)" xlink:href="#d"/><use width="477" height="214.5" transform="translate(99.9998)" xlink:href="#d"/><use width="477" height="214.5" transform="translate(449.9989)" xlink:href="#d"/><use width="477" height="214.5" transform="translate(499.9987)" xlink:href="#d"/><use width="477" height="214.5" transform="translate(549.9986)" xlink:href="#d"/><rect width="55.9999" height="35.9999" x="-63" y="173.6438" fill="#7bb975" color="#000" overflow="visible" rx="7" ry="7" style="marker:none"/><text x="60.0577" y="316.6024" fill="#fff" font-family="sans-serif" font-size="13.9887" font-weight="400" letter-spacing="0" style="text-align:center;line-height:125%" text-anchor="middle" word-spacing="0"><tspan x="60.0577" y="316.6024">Alt</tspan></text><use width="702" height="214.5" transform="translate(39.9999)" xlink:href="#e"/><use width="702" height="214.5" transform="translate(79.9998)" xlink:href="#e"/><use width="702" height="214.5" transform="translate(119.9997)" xlink:href="#e"/></g><g transform="translate(73 -73.6435)"><rect width="45.9999" height="35.9999" x="-63" y="253.6437" fill="#5654f0" color="#000" overflow="visible" rx="7" ry="7" style="marker:none"/><rect width="35.9999" height="35.9999" x="-13.0001" y="253.6437" fill="#5654f0" color="#000" overflow="visible" rx="7" ry="5" style="marker:none"/><path fill="#5856ee" d="M482.9986 173.661c-3.3698.3401-6 3.204-6 6.6666v23.4251c0 3.107 2.1331 5.6703 5.0616 6.51 2.9284.8399 4.7927 2.46 4.9384 5.3148l.0416 11.25v16.1666c.004 3.6933 2.9317 6.6666 6.625 6.6666h32.6666c3.6933 0 6.6666-2.9733 6.6666-6.6666v-62.6665c0-3.6934-2.9733-6.6667-6.6666-6.6667h-42.6666c-.2308 0-.442-.0227-.6666 0z" color="#000" overflow="visible" style="marker:none"/><text x="360.057" y="316.6502" fill="#fff" font-family="sans-serif" font-size="13.9887" font-weight="400" letter-spacing="0" style="text-align:center;line-height:125%" text-anchor="middle" word-spacing="0"><tspan x="360.057" y="316.6502">Alt Gr</tspan></text><rect width="35.9999" height="35.9999" x="446.9987" y="213.6437" fill="#5654f0" color="#000" overflow="visible" rx="7" ry="7" style="marker:none"/></g></svg>
